<svg version="1" xmlns="http://www.w3.org/2000/svg" width="982.667" height="982.667" viewBox="0 0 737.000000 737.000000"><path d="M279.4 159c-.9 2.4-61.1 170.8-67 187.5-14.4 41-20.7 58.1-21.5 58.9-.5.6-6.9-.5-16.6-2.9-34.8-8.5-60-18.5-78.8-31-17.7-11.8-24.8-21.9-24.6-35 .2-21.6 21.7-37.2 73.3-53.4 8.1-2.5 36.7-9.6 42.3-10.5 2.2-.4 4.7-.8 5.5-1.1 1.7-.5 4.6-1 13.5-2.5 3.3-.5 7.4-1.2 9-1.5 7.6-1.3 9.3-1.5 13-2 4.1-.6 8.5-1.2 12-1.6 1.1-.1-.9-.5-4.5-.8-7.4-.7-76.2-.5-83 .3-2.5.2-8.5.7-13.5 1.1-4.9.3-10.6.8-12.5 1-1.9.3-7.5.9-12.5 1.5-10.9 1.3-33.4 5.4-43 8-35.1 9.1-56.7 24.5-67.1 47.5-3.9 8.6-4.3 21.3-1 30.6 3.4 9.8 14.4 25.6 25.1 36.2 21.4 21.1 58.7 40.3 98 50.3 1.7.4 3.5.8 4 1 2.3.6 31.5 6.4 38.6 7.6l7.6 1.3-4.5 12.5c-12 33.6-17.9 50.1-28.7 80-6.5 17.9-11.8 33.6-11.9 34.9l-.1 2.4 46.1.2 46.2.3 5-15.2c5.5-16.5 31-94.6 33.9-103.8l1.8-5.7 13 .5c7.2.3 36.6.7 65.5.9 41.7.3 52.7.7 53.2 1.7.5.7 3.2 8.9 6.2 18.3 3 9.3 9 28.2 13.4 42 4.4 13.7 10.6 33 13.7 42.7 4.3 13.5 6.1 17.8 7.3 17.9 6.7.2 94.4 0 94.7-.3.4-.3-6-19.2-8.5-25.3-.4-1.1-2.6-7.2-4.8-13.5-4.4-12.5-21.3-60.5-26.9-76.3-1.9-5.4-3.3-10.1-3-10.3.4-.5 4.8-.9 17.7-1.9 9.7-.7 18.6-1.7 27-3 1.4-.2 4.5-.6 7-1 2.5-.3 5.6-.8 7-1 1.4-.2 4.5-.7 7-1 2.5-.4 5.6-.8 7-1 1.4-.2 4.5-.7 7-1 2.5-.3 5.6-.8 7-1 1.4-.2 4.3-.6 6.5-.9 5.2-.7 40.3-5.6 43.5-6.1 1.4-.2 7.9-1.1 14.5-2 6.6-.8 12.9-1.7 14-1.9 1.1-.2 4.3-.7 7-1 2.8-.3 6.6-.8 8.5-1.1 6.7-1 11.5-1.6 15-2 4.6-.6 11.9-1.5 15-2 2.2-.3 8.2-1.1 14.5-2 1.1-.1 3.5-.3 5.3-.4 1.7 0 3.2-.6 3.2-1.2 0-.5-.4-.8-.8-.5-.4.3-5.3.7-10.8 1.1-13.7.8-24.4 1.4-34.4 2-7.7.4-14.4.7-43.5 2-33.7 1.5-143.7 2.7-150.8 1.7-3.2-.5-3.1-.3-8.1-14.7-1.9-5.5-8.9-25.5-15.6-44.5-6.7-19-14-39.7-16.2-46-2.2-6.3-4.3-12.4-4.8-13.5-.5-1.1-5.4-15.3-11-31.5s-10.6-30.4-11.1-31.5c-.5-1.1-2.3-6.1-4-11-1.7-5-7.4-21.2-12.6-36-5.2-14.9-10.6-30.3-12-34.3-1.4-3.9-3.1-7.3-3.7-7.3-.6-.1-23.7-.2-51.3-.3-44.1-.1-50.3.1-50.9 1.4zm52.9 101.3c1 3.4 5.1 16.5 9.2 29.2 4.1 12.6 11.3 35.1 16 50 10.1 31.6 21.8 67.9 25 78.2 1.3 4 2 7.3 1.6 7.4-.7.1-8-.2-18.1-.6-7.4-.3-22.8-1.3-31-2-3-.2-9.3-.7-14-1-4.7-.4-10.4-.8-12.8-1-2.4-.3-8.2-.8-13-1.1-4.8-.4-9.4-.8-10.2-.9-.8-.2-3.2-.4-5.2-.4l-3.7-.1 1.9-6.4c1-3.6 2.7-9.1 3.8-12.3 1.1-3.2 8.4-25.4 16.2-49.3 7.8-23.9 16.3-50 18.9-58 2.7-8 6.5-19.8 8.6-26.3 2.1-6.4 4-11.7 4.4-11.7.3 0 1.4 2.8 2.4 6.3zm394 161.4c.9.2 2.3.2 3 0 .6-.3-.1-.5-1.8-.5-1.6 0-2.2.2-1.2.5z"/></svg>